<svg xmlns="http://www.w3.org/2000/svg" xmlns:xlink="http://www.w3.org/1999/xlink" viewBox="0 0 1370 200" width="1370" height="200" preserveAspectRatio="xMidYMid meet" style="width: 100%; height: 100%; transform: translate3d(0px, 0px, 0px); content-visibility: visible;"><defs><clipPath id="__lottie_element_562"><rect width="1370" height="200" x="0" y="0"></rect></clipPath><symbol id="__lottie_element_567"><g><g transform="matrix(0.6700000166893005,0,0,0.6365000009536743,67,52.75762939453125)" opacity="1" style="display: block;"><g opacity="1" transform="matrix(1,0,0,1,0,0)"><path fill="rgb(246,238,236)" fill-opacity="1" d=" M-98.49199676513672,28.23900032043457 C-98.49199676513672,28.23900032043457 -98.71600341796875,28.20400047302246 -98.71600341796875,28.20400047302246 C-98.71600341796875,28.20400047302246 -98.71600341796875,-28.20400047302246 -98.71600341796875,-28.20400047302246 C-98.71600341796875,-28.20400047302246 -98.49199676513672,-28.170000076293945 -98.49199676513672,-28.170000076293945 C-98.49199676513672,-28.170000076293945 -98.49199676513672,28.23900032043457 -98.49199676513672,28.23900032043457z"></path></g></g></g></symbol><symbol id="__lottie_element_573"><g><g transform="matrix(0.6700000166893005,0,0,0.6365000009536743,43.37847900390625,100)" opacity="1" style="display: block;"><g opacity="1" transform="matrix(1,0,0,1,0,0)"><path fill="rgb(246,238,236)" fill-opacity="1" d=" M-63.334999084472656,28.250999450683594 C-63.334999084472656,28.250999450683594 -63.459999084472656,28.20400047302246 -63.459999084472656,28.20400047302246 C-63.459999084472656,28.20400047302246 -63.459999084472656,-28.20400047302246 -63.459999084472656,-28.20400047302246 C-63.459999084472656,-28.20400047302246 -63.334999084472656,-28.158000946044922 -63.334999084472656,-28.158000946044922 C-63.334999084472656,-28.158000946044922 -63.334999084472656,28.250999450683594 -63.334999084472656,28.250999450683594z"></path></g></g></g></symbol><symbol id="__lottie_element_579"><g><g transform="matrix(0.6700000166893005,0,0,0.6365000009536743,19.757627487182617,147.24237060546875)" opacity="1" style="display: block;"><g opacity="1" transform="matrix(1,0,0,1,0,0)"><path fill="rgb(246,238,236)" fill-opacity="1" d=" M-27.847999572753906,28.26300048828125 C-27.847999572753906,28.26300048828125 -28.20400047302246,28.20400047302246 -28.20400047302246,28.20400047302246 C-28.20400047302246,28.20400047302246 -28.20400047302246,-28.20400047302246 -28.20400047302246,-28.20400047302246 C-28.20400047302246,-28.20400047302246 -27.847999572753906,-28.145999908447266 -27.847999572753906,-28.145999908447266 C-27.847999572753906,-28.145999908447266 -27.847999572753906,28.26300048828125 -27.847999572753906,28.26300048828125z"></path></g></g></g></symbol><symbol id="__lottie_element_585"><g><g transform="matrix(0,0,0,0,114.24237060546875,147.24237060546875)" opacity="1" style="display: block;"><g opacity="1" transform="matrix(1,0,0,1,0,0)"><path fill="rgb(255,130,130)" fill-opacity="1" d=" M28.20400047302246,0 C28.20400047302246,15.57699966430664 15.57699966430664,28.20400047302246 0,28.20400047302246 C-15.57699966430664,28.20400047302246 -28.20400047302246,15.57699966430664 -28.20400047302246,0 C-28.20400047302246,-15.57699966430664 -15.57699966430664,-28.20400047302246 0,-28.20400047302246 C15.57699966430664,-28.20400047302246 28.20400047302246,-15.57699966430664 28.20400047302246,0z"></path></g></g></g></symbol><symbol id="__lottie_element_591"><g><g transform="matrix(0,0,0,0,114.24237060546875,100)" opacity="1" style="display: block;"><g opacity="1" transform="matrix(1,0,0,1,0,0)"><path fill="rgb(255,130,130)" fill-opacity="1" d=" M28.20400047302246,0 C28.20400047302246,15.57699966430664 15.57699966430664,28.20400047302246 0,28.20400047302246 C-15.57699966430664,28.20400047302246 -28.20400047302246,15.57699966430664 -28.20400047302246,0 C-28.20400047302246,-15.57699966430664 -15.57699966430664,-28.20400047302246 0,-28.20400047302246 C15.57699966430664,-28.20400047302246 28.20400047302246,-15.57699966430664 28.20400047302246,0z"></path></g></g></g></symbol><symbol id="__lottie_element_597"><g><g transform="matrix(0,0,0,0,67,147.24237060546875)" opacity="1" style="display: block;"><g opacity="1" transform="matrix(1,0,0,1,0,0)"><path fill="rgb(255,130,130)" fill-opacity="1" d=" M28.20400047302246,0 C28.20400047302246,15.57699966430664 15.57699966430664,28.20400047302246 0,28.20400047302246 C-15.57699966430664,28.20400047302246 -28.20400047302246,15.57699966430664 -28.20400047302246,0 C-28.20400047302246,-15.57699966430664 -15.57699966430664,-28.20400047302246 0,-28.20400047302246 C15.57699966430664,-28.20400047302246 28.20400047302246,-15.57699966430664 28.20400047302246,0z"></path></g></g></g></symbol><filter id="__lottie_element_607" filterUnits="objectBoundingBox" x="0%" y="0%" width="100%" height="100%"><feComponentTransfer in="SourceGraphic"><feFuncA type="table" tableValues="1.0 0.0"></feFuncA></feComponentTransfer></filter><mask id="__lottie_element_597_2" mask-type="alpha"><g filter="url(#__lottie_element_607)"><rect width="1370" height="200" x="0" y="0" fill="#ffffff" opacity="0"></rect><use xlink:href="#__lottie_element_597"></use></g></mask><filter id="__lottie_element_608" filterUnits="objectBoundingBox" x="0%" y="0%" width="100%" height="100%"><feComponentTransfer in="SourceGraphic"><feFuncA type="table" tableValues="1.0 0.0"></feFuncA></feComponentTransfer></filter><mask id="__lottie_element_591_2" mask-type="alpha"><g filter="url(#__lottie_element_608)"><rect width="1370" height="200" x="0" y="0" fill="#ffffff" opacity="0"></rect><use xlink:href="#__lottie_element_591"></use></g></mask><filter id="__lottie_element_609" filterUnits="objectBoundingBox" x="0%" y="0%" width="100%" height="100%"><feComponentTransfer in="SourceGraphic"><feFuncA type="table" tableValues="1.0 0.0"></feFuncA></feComponentTransfer></filter><mask id="__lottie_element_585_2" mask-type="alpha"><g filter="url(#__lottie_element_609)"><rect width="1370" height="200" x="0" y="0" fill="#ffffff" opacity="0"></rect><use xlink:href="#__lottie_element_585"></use></g></mask><filter id="__lottie_element_610" filterUnits="objectBoundingBox" x="0%" y="0%" width="100%" height="100%"><feComponentTransfer in="SourceGraphic"><feFuncA type="table" tableValues="1.0 0.0"></feFuncA></feComponentTransfer></filter><mask id="__lottie_element_579_2" mask-type="alpha"><g filter="url(#__lottie_element_610)"><rect width="1370" height="200" x="0" y="0" fill="#ffffff" opacity="0"></rect><use xlink:href="#__lottie_element_579"></use></g></mask><filter id="__lottie_element_611" filterUnits="objectBoundingBox" x="0%" y="0%" width="100%" height="100%"><feComponentTransfer in="SourceGraphic"><feFuncA type="table" tableValues="1.0 0.0"></feFuncA></feComponentTransfer></filter><mask id="__lottie_element_573_2" mask-type="alpha"><g filter="url(#__lottie_element_611)"><rect width="1370" height="200" x="0" y="0" fill="#ffffff" opacity="0"></rect><use xlink:href="#__lottie_element_573"></use></g></mask><filter id="__lottie_element_612" filterUnits="objectBoundingBox" x="0%" y="0%" width="100%" height="100%"><feComponentTransfer in="SourceGraphic"><feFuncA type="table" tableValues="1.0 0.0"></feFuncA></feComponentTransfer></filter><mask id="__lottie_element_567_2" mask-type="alpha"><g filter="url(#__lottie_element_612)"><rect width="1370" height="200" x="0" y="0" fill="#ffffff" opacity="0"></rect><use xlink:href="#__lottie_element_567"></use></g></mask></defs><g clip-path="url(#__lottie_element_562)"><g mask="url(#__lottie_element_567_2)" style="display: block;"><g transform="matrix(0.6700000166893005,0,0,0.6700000166893005,67,52.75762939453125)" opacity="1"><g opacity="1" transform="matrix(1,0,0,1,0,0)"><path fill="rgb(255,255,255)" fill-opacity="1" d=" M98.71600341796875,28.20400047302246 C98.71600341796875,28.20400047302246 -98.71600341796875,28.20400047302246 -98.71600341796875,28.20400047302246 C-98.71600341796875,28.20400047302246 -98.71600341796875,-28.20400047302246 -98.71600341796875,-28.20400047302246 C-98.71600341796875,-28.20400047302246 98.71600341796875,-28.20400047302246 98.71600341796875,-28.20400047302246 C98.71600341796875,-28.20400047302246 98.71600341796875,28.20400047302246 98.71600341796875,28.20400047302246z"></path></g></g></g><g mask="url(#__lottie_element_573_2)" style="display: block;"><g transform="matrix(0.6700000166893005,0,0,0.6700000166893005,43.37847900390625,100)" opacity="1"><g opacity="1" transform="matrix(1,0,0,1,0,0)"><path fill="rgb(255,255,255)" fill-opacity="1" d=" M63.459999084472656,28.20400047302246 C63.459999084472656,28.20400047302246 -63.459999084472656,28.20400047302246 -63.459999084472656,28.20400047302246 C-63.459999084472656,28.20400047302246 -63.459999084472656,-28.20400047302246 -63.459999084472656,-28.20400047302246 C-63.459999084472656,-28.20400047302246 63.459999084472656,-28.20400047302246 63.459999084472656,-28.20400047302246 C63.459999084472656,-28.20400047302246 63.459999084472656,28.20400047302246 63.459999084472656,28.20400047302246z"></path></g></g></g><g mask="url(#__lottie_element_579_2)" style="display: block;"><g transform="matrix(0.6700000166893005,0,0,0.6700000166893005,19.757627487182617,147.24237060546875)" opacity="1"><g opacity="1" transform="matrix(1,0,0,1,0,0)"><path fill="rgb(255,255,255)" fill-opacity="1" d=" M28.20400047302246,28.20400047302246 C28.20400047302246,28.20400047302246 -28.20400047302246,28.20400047302246 -28.20400047302246,28.20400047302246 C-28.20400047302246,28.20400047302246 -28.20400047302246,-28.20400047302246 -28.20400047302246,-28.20400047302246 C-28.20400047302246,-28.20400047302246 28.20400047302246,-28.20400047302246 28.20400047302246,-28.20400047302246 C28.20400047302246,-28.20400047302246 28.20400047302246,28.20400047302246 28.20400047302246,28.20400047302246z"></path></g></g></g><g mask="url(#__lottie_element_585_2)" style="display: block;"><g transform="matrix(0.6700000166893005,0,0,0.6700000166893005,114.24237060546875,147.24237060546875)" opacity="1"><g opacity="1" transform="matrix(1,0,0,1,0,0)"><path fill="rgb(255,130,130)" fill-opacity="1" d=" M28.20400047302246,0 C28.20400047302246,15.57699966430664 15.57699966430664,28.20400047302246 0,28.20400047302246 C-15.57699966430664,28.20400047302246 -28.20400047302246,15.57699966430664 -28.20400047302246,0 C-28.20400047302246,-15.57699966430664 -15.57699966430664,-28.20400047302246 0,-28.20400047302246 C15.57699966430664,-28.20400047302246 28.20400047302246,-15.57699966430664 28.20400047302246,0z"></path></g></g></g><g mask="url(#__lottie_element_591_2)" style="display: block;"><g transform="matrix(0.6700000166893005,0,0,0.6700000166893005,114.24237060546875,100)" opacity="1"><g opacity="1" transform="matrix(1,0,0,1,0,0)"><path fill="rgb(255,130,130)" fill-opacity="1" d=" M28.20400047302246,0 C28.20400047302246,15.57699966430664 15.57699966430664,28.20400047302246 0,28.20400047302246 C-15.57699966430664,28.20400047302246 -28.20400047302246,15.57699966430664 -28.20400047302246,0 C-28.20400047302246,-15.57699966430664 -15.57699966430664,-28.20400047302246 0,-28.20400047302246 C15.57699966430664,-28.20400047302246 28.20400047302246,-15.57699966430664 28.20400047302246,0z"></path></g></g></g><g mask="url(#__lottie_element_597_2)" style="display: block;"><g transform="matrix(0.6700000166893005,0,0,0.6700000166893005,67,147.24237060546875)" opacity="1"><g opacity="1" transform="matrix(1,0,0,1,0,0)"><path fill="rgb(255,130,130)" fill-opacity="1" d=" M28.20400047302246,0 C28.20400047302246,15.57699966430664 15.57699966430664,28.20400047302246 0,28.20400047302246 C-15.57699966430664,28.20400047302246 -28.20400047302246,15.57699966430664 -28.20400047302246,0 C-28.20400047302246,-15.57699966430664 -15.57699966430664,-28.20400047302246 0,-28.20400047302246 C15.57699966430664,-28.20400047302246 28.20400047302246,-15.57699966430664 28.20400047302246,0z"></path></g></g></g><g transform="matrix(3.440000057220459,0,0,3.440000057220459,-2622.400146484375,-1756.5999755859375)" opacity="1" style="display: block;"><g opacity="1" transform="matrix(1,0,0,1,833.0289916992188,540)"><path fill="rgb(255,255,255)" fill-opacity="1" d=" M-13.78499984741211,19.479999542236328 C-13.78499984741211,19.479999542236328 -13.78499984741211,-19.479999542236328 -13.78499984741211,-19.479999542236328 C-13.78499984741211,-19.479999542236328 13.78499984741211,-19.479999542236328 13.78499984741211,-19.479999542236328 C13.78499984741211,-19.479999542236328 13.78499984741211,-12.354000091552734 13.78499984741211,-12.354000091552734 C13.78499984741211,-12.354000091552734 -5.491000175476074,-12.354000091552734 -5.491000175476074,-12.354000091552734 C-5.491000175476074,-12.354000091552734 -5.491000175476074,-3.884000062942505 -5.491000175476074,-3.884000062942505 C-5.491000175476074,-3.884000062942505 13.37600040435791,-3.884000062942505 13.37600040435791,-3.884000062942505 C13.37600040435791,-3.884000062942505 13.37600040435791,3.242000102996826 13.37600040435791,3.242000102996826 C13.37600040435791,3.242000102996826 -5.491000175476074,3.242000102996826 -5.491000175476074,3.242000102996826 C-5.491000175476074,3.242000102996826 -5.491000175476074,19.479999542236328 -5.491000175476074,19.479999542236328 C-5.491000175476074,19.479999542236328 -13.78499984741211,19.479999542236328 -13.78499984741211,19.479999542236328z"></path></g><g opacity="1" transform="matrix(1,0,0,1,868.427001953125,540)"><path fill="rgb(255,255,255)" fill-opacity="1" d=" M-4.146999835968018,19.479999542236328 C-4.146999835968018,19.479999542236328 -4.146999835968018,-19.479999542236328 -4.146999835968018,-19.479999542236328 C-4.146999835968018,-19.479999542236328 4.146999835968018,-19.479999542236328 4.146999835968018,-19.479999542236328 C4.146999835968018,-19.479999542236328 4.146999835968018,19.479999542236328 4.146999835968018,19.479999542236328 C4.146999835968018,19.479999542236328 -4.146999835968018,19.479999542236328 -4.146999835968018,19.479999542236328z"></path></g><g opacity="1" transform="matrix(1,0,0,1,907.7559814453125,540)"><path fill="rgb(255,255,255)" fill-opacity="1" d=" M9.434000015258789,19.479999542236328 C9.434000015258789,19.479999542236328 -9.140999794006348,-6.688000202178955 -9.140999794006348,-6.688000202178955 C-9.140999794006348,-6.688000202178955 -9.140999794006348,19.479999542236328 -9.140999794006348,19.479999542236328 C-9.140999794006348,19.479999542236328 -17.43600082397461,19.479999542236328 -17.43600082397461,19.479999542236328 C-17.43600082397461,19.479999542236328 -17.43600082397461,-19.479999542236328 -17.43600082397461,-19.479999542236328 C-17.43600082397461,-19.479999542236328 -8.907999992370605,-19.479999542236328 -8.907999992370605,-19.479999542236328 C-8.907999992370605,-19.479999542236328 9.140999794006348,5.754000186920166 9.140999794006348,5.754000186920166 C9.140999794006348,5.754000186920166 9.140999794006348,-19.479999542236328 9.140999794006348,-19.479999542236328 C9.140999794006348,-19.479999542236328 17.43600082397461,-19.479999542236328 17.43600082397461,-19.479999542236328 C17.43600082397461,-19.479999542236328 17.43600082397461,19.479999542236328 17.43600082397461,19.479999542236328 C17.43600082397461,19.479999542236328 9.434000015258789,19.479999542236328 9.434000015258789,19.479999542236328z"></path></g><g opacity="1" transform="matrix(1,0,0,1,958.0859985351562,540)"><path fill="rgb(255,255,255)" fill-opacity="1" d=" M-11.506999969482422,7.623000144958496 C-8.76200008392334,10.484999656677246 -4.498000144958496,12.880000114440918 0.8759999871253967,12.880000114440918 C5.432000160217285,12.880000114440918 7.6519999504089355,10.718999862670898 7.6519999504089355,8.49899959564209 C7.6519999504089355,5.578000068664551 4.263999938964844,4.585000038146973 -0.23399999737739563,3.5339999198913574 C-6.60099983215332,2.0739998817443848 -14.777999877929688,0.32100000977516174 -14.777999877929688,-8.381999969482422 C-14.777999877929688,-14.866000175476074 -9.170999526977539,-20.12299919128418 0,-20.12299919128418 C6.191999912261963,-20.12299919128418 11.331999778747559,-18.253999710083008 15.187000274658203,-14.690999984741211 C15.187000274658203,-14.690999984741211 10.572999954223633,-8.616000175476074 10.572999954223633,-8.616000175476074 C7.419000148773193,-11.536999702453613 3.2130000591278076,-12.880000114440918 -0.5839999914169312,-12.880000114440918 C-4.322000026702881,-12.880000114440918 -6.308000087738037,-11.244000434875488 -6.308000087738037,-8.907999992370605 C-6.308000087738037,-6.2789998054504395 -3.0380001068115234,-5.460999965667725 1.4600000381469727,-4.409999847412109 C7.885000228881836,-2.950000047683716 16.062999725341797,-1.0219999551773071 16.062999725341797,7.623000144958496 C16.062999725341797,14.74899959564209 10.980999946594238,20.12299919128418 0.46700000762939453,20.12299919128418 C-7.010000228881836,20.12299919128418 -12.383000373840332,17.611000061035156 -16.062999725341797,13.930999755859375 C-16.062999725341797,13.930999755859375 -11.506999969482422,7.623000144958496 -11.506999969482422,7.623000144958496z"></path></g><g opacity="1" transform="matrix(1,0,0,1,1005.697021484375,540)"><path fill="rgb(255,255,255)" fill-opacity="1" d=" M-4.146999835968018,19.479999542236328 C-4.146999835968018,19.479999542236328 -4.146999835968018,-12.178999900817871 -4.146999835968018,-12.178999900817871 C-4.146999835968018,-12.178999900817871 -15.538000106811523,-12.178999900817871 -15.538000106811523,-12.178999900817871 C-15.538000106811523,-12.178999900817871 -15.538000106811523,-19.479999542236328 -15.538000106811523,-19.479999542236328 C-15.538000106811523,-19.479999542236328 15.538000106811523,-19.479999542236328 15.538000106811523,-19.479999542236328 C15.538000106811523,-19.479999542236328 15.538000106811523,-12.178999900817871 15.538000106811523,-12.178999900817871 C15.538000106811523,-12.178999900817871 4.205999851226807,-12.178999900817871 4.205999851226807,-12.178999900817871 C4.205999851226807,-12.178999900817871 4.205999851226807,19.479999542236328 4.205999851226807,19.479999542236328 C4.205999851226807,19.479999542236328 -4.146999835968018,19.479999542236328 -4.146999835968018,19.479999542236328z"></path></g><g opacity="1" transform="matrix(1,0,0,1,1052.7939453125,540)"><path fill="rgb(255,255,255)" fill-opacity="1" d=" M-13.78499984741211,19.479999542236328 C-13.78499984741211,19.479999542236328 -13.78499984741211,-19.479999542236328 -13.78499984741211,-19.479999542236328 C-13.78499984741211,-19.479999542236328 13.78499984741211,-19.479999542236328 13.78499984741211,-19.479999542236328 C13.78499984741211,-19.479999542236328 13.78499984741211,-12.354000091552734 13.78499984741211,-12.354000091552734 C13.78499984741211,-12.354000091552734 -5.491000175476074,-12.354000091552734 -5.491000175476074,-12.354000091552734 C-5.491000175476074,-12.354000091552734 -5.491000175476074,-3.884000062942505 -5.491000175476074,-3.884000062942505 C-5.491000175476074,-3.884000062942505 13.37600040435791,-3.884000062942505 13.37600040435791,-3.884000062942505 C13.37600040435791,-3.884000062942505 13.37600040435791,3.242000102996826 13.37600040435791,3.242000102996826 C13.37600040435791,3.242000102996826 -5.491000175476074,3.242000102996826 -5.491000175476074,3.242000102996826 C-5.491000175476074,3.242000102996826 -5.491000175476074,12.295999526977539 -5.491000175476074,12.295999526977539 C-5.491000175476074,12.295999526977539 13.78499984741211,12.295999526977539 13.78499984741211,12.295999526977539 C13.78499984741211,12.295999526977539 13.78499984741211,19.479999542236328 13.78499984741211,19.479999542236328 C13.78499984741211,19.479999542236328 -13.78499984741211,19.479999542236328 -13.78499984741211,19.479999542236328z"></path></g><g opacity="1" transform="matrix(1,0,0,1,1099.740966796875,540)"><path fill="rgb(255,255,255)" fill-opacity="1" d=" M6.25,19.479999542236328 C6.25,19.479999542236328 -1.4019999504089355,5.519999980926514 -1.4019999504089355,5.519999980926514 C-1.4019999504089355,5.519999980926514 -7.4770002365112305,5.519999980926514 -7.4770002365112305,5.519999980926514 C-7.4770002365112305,5.519999980926514 -7.4770002365112305,19.479999542236328 -7.4770002365112305,19.479999542236328 C-7.4770002365112305,19.479999542236328 -15.770999908447266,19.479999542236328 -15.770999908447266,19.479999542236328 C-15.770999908447266,19.479999542236328 -15.770999908447266,-19.479999542236328 -15.770999908447266,-19.479999542236328 C-15.770999908447266,-19.479999542236328 2.453000068664551,-19.479999542236328 2.453000068664551,-19.479999542236328 C10.571999549865723,-19.479999542236328 15.538000106811523,-14.164999961853027 15.538000106811523,-6.921999931335449 C15.538000106811523,-0.028999999165534973 11.21500015258789,3.6510000228881836 7.008999824523926,4.644000053405762 C7.008999824523926,4.644000053405762 15.770999908447266,19.479999542236328 15.770999908447266,19.479999542236328 C15.770999908447266,19.479999542236328 6.25,19.479999542236328 6.25,19.479999542236328z M1.2269999980926514,-12.354000091552734 C1.2269999980926514,-12.354000091552734 -7.4770002365112305,-12.354000091552734 -7.4770002365112305,-12.354000091552734 C-7.4770002365112305,-12.354000091552734 -7.4770002365112305,-1.6059999465942383 -7.4770002365112305,-1.6059999465942383 C-7.4770002365112305,-1.6059999465942383 1.2269999980926514,-1.6059999465942383 1.2269999980926514,-1.6059999465942383 C4.556000232696533,-1.6059999465942383 7.067999839782715,-3.7090001106262207 7.067999839782715,-6.980000019073486 C7.067999839782715,-10.25100040435791 4.556000232696533,-12.354000091552734 1.2269999980926514,-12.354000091552734z"></path></g></g><g transform="matrix(3.440000057220459,0,0,3.440000057220459,-2622.400146484375,-1756.5999755859375)" opacity="1" style="display: block;"><g opacity="1" transform="matrix(1,0,0,1,1138.10498046875,529.72900390625)"><path fill="rgb(255,255,255)" fill-opacity="1" d=" M5.6570000648498535,9.85200023651123 C5.6570000648498535,9.85200023651123 4.415999889373779,6.454999923706055 4.415999889373779,6.454999923706055 C4.415999889373779,6.454999923706055 -4.38700008392334,6.454999923706055 -4.38700008392334,6.454999923706055 C-4.38700008392334,6.454999923706055 -5.626999855041504,9.85200023651123 -5.626999855041504,9.85200023651123 C-5.626999855041504,9.85200023651123 -10.236000061035156,9.85200023651123 -10.236000061035156,9.85200023651123 C-10.236000061035156,9.85200023651123 -2.614000082015991,-9.85200023651123 -2.614000082015991,-9.85200023651123 C-2.614000082015991,-9.85200023651123 2.6440000534057617,-9.85200023651123 2.6440000534057617,-9.85200023651123 C2.6440000534057617,-9.85200023651123 10.236000061035156,9.85200023651123 10.236000061035156,9.85200023651123 C10.236000061035156,9.85200023651123 5.6570000648498535,9.85200023651123 5.6570000648498535,9.85200023651123z M0.014999999664723873,-6.2179999351501465 C0.014999999664723873,-6.2179999351501465 -3.2639999389648438,2.821000099182129 -3.2639999389648438,2.821000099182129 C-3.2639999389648438,2.821000099182129 3.2639999389648438,2.821000099182129 3.2639999389648438,2.821000099182129 C3.2639999389648438,2.821000099182129 0.014999999664723873,-6.2179999351501465 0.014999999664723873,-6.2179999351501465z"></path></g><g opacity="1" transform="matrix(1,0,0,1,1155.2220458984375,529.72900390625)"><path fill="rgb(255,255,255)" fill-opacity="1" d=" M-2.0969998836517334,9.85200023651123 C-2.0969998836517334,9.85200023651123 -2.0969998836517334,-9.85200023651123 -2.0969998836517334,-9.85200023651123 C-2.0969998836517334,-9.85200023651123 2.0969998836517334,-9.85200023651123 2.0969998836517334,-9.85200023651123 C2.0969998836517334,-9.85200023651123 2.0969998836517334,9.85200023651123 2.0969998836517334,9.85200023651123 C2.0969998836517334,9.85200023651123 -2.0969998836517334,9.85200023651123 -2.0969998836517334,9.85200023651123z"></path></g></g></g></svg>